# Blender 4.4.3
# www.blender.org
mtllib bullet.mtl
o Sphere
v 0.290529 0.290529 0.601209
v 0.000000 0.410871 -0.898143
v 0.410871 -0.000000 0.601209
v -0.290529 0.290529 -0.898143
v 0.290529 -0.290529 0.601209
v -0.410871 -0.000000 -0.898143
v 0.000000 -0.410871 0.601209
v -0.290529 -0.290529 -0.898143
v -0.290529 -0.290529 0.601209
v 0.000000 -0.410871 -0.898143
v -0.410871 -0.000000 0.601209
v 0.290529 -0.290529 -0.898143
v -0.290529 0.290529 0.601209
v 0.410871 -0.000000 -0.898143
v 0.000000 -0.000000 0.894102
v 0.000000 0.410871 0.601209
v 0.290529 0.290529 -0.898143
v -0.410871 -0.000000 -0.403851
v 0.410871 -0.000000 -0.403851
v -0.290529 0.290529 -0.403851
v 0.290529 0.290529 -0.403852
v 0.000000 0.410871 -0.403851
v 0.000000 -0.410871 -0.403852
v 0.290529 -0.290529 -0.403851
v -0.290529 -0.290529 -0.403851
v 0.410871 -0.000000 -0.601568
v -0.290529 0.290529 -0.601568
v 0.290529 0.290529 -0.601568
v 0.000000 -0.410871 -0.601568
v -0.290529 -0.290529 -0.601568
v -0.410871 -0.000000 -0.601568
v 0.000000 0.410871 -0.601568
v 0.290529 -0.290529 -0.601568
v -0.380597 -0.000000 -0.448950
v 0.000000 0.380597 -0.448950
v 0.269123 -0.269123 -0.448950
v 0.380597 -0.000000 -0.448950
v -0.269123 0.269123 -0.448950
v 0.269123 0.269123 -0.448950
v 0.000000 -0.380597 -0.448950
v -0.269123 -0.269123 -0.448950
v 0.380597 -0.000000 -0.559378
v -0.269123 0.269123 -0.559378
v 0.269123 0.269123 -0.559378
v 0.000000 -0.380597 -0.559378
v -0.269123 -0.269123 -0.559378
v -0.380597 -0.000000 -0.559378
v 0.000000 0.380597 -0.559378
v 0.269123 -0.269123 -0.559378
vn -0.9239 -0.3827 -0.0000
vn 0.2338 0.5644 0.7917
vn -0.3827 0.9239 -0.0000
vn 0.5644 0.2338 0.7917
vn 0.9239 -0.3827 -0.0000
vn 0.5644 -0.2338 0.7917
vn -0.9239 0.3827 -0.0000
vn 0.2338 -0.5644 0.7917
vn -0.3827 -0.9239 -0.0000
vn -0.2338 -0.5644 0.7917
vn 0.9239 0.3827 -0.0000
vn -0.5644 -0.2338 0.7917
vn -0.5644 0.2338 0.7917
vn 0.3827 0.9239 -0.0000
vn -0.2338 0.5644 0.7917
vn 0.3827 -0.9239 -0.0000
vn 0.3190 -0.7700 0.5525
vn 0.3190 0.7700 0.5525
vn 0.7700 0.3190 0.5525
vn -0.3190 -0.7700 0.5525
vn -0.7700 0.3190 0.5525
vn 0.7700 -0.3190 0.5525
vn -0.3190 0.7700 0.5525
vn -0.7700 -0.3190 0.5525
vn -0.7851 -0.3252 -0.5270
vn -0.3252 0.7851 -0.5270
vn 0.7851 -0.3252 -0.5270
vn -0.7851 0.3252 -0.5270
vn -0.3252 -0.7851 -0.5270
vn 0.7851 0.3252 -0.5270
vn 0.3252 0.7851 -0.5270
vn 0.3252 -0.7851 -0.5270
vn -0.0000 -0.0000 -1.0000
vt 0.930663 0.202710
vt 0.930663 0.083965
vt 1.000000 0.083965
vt 1.000000 0.202710
vt 0.851427 0.374250
vt 0.682874 0.457171
vt 0.783888 0.298349
vt 0.083965 0.449981
vt 0.202711 0.449981
vt 0.202711 0.560935
vt 0.083965 0.560935
vt 0.668705 0.269481
vt 0.573352 0.110954
vt 0.489387 0.122343
vt 0.489387 0.011389
vt 0.573352 -0.000000
vt 0.573352 0.304556
vt 0.000000 0.461369
vt 0.000000 0.572324
vt 0.573352 0.479023
vt 0.716690 0.457171
vt 0.573352 0.572271
vt 0.370641 0.122343
vt 0.286676 0.110954
vt 0.286676 -0.000000
vt 0.370641 0.011389
vt 0.657318 0.638207
vt 0.368654 0.656289
vt 0.368655 0.775034
vt 0.286676 0.775034
vt 0.286676 0.656289
vt 0.776063 0.638207
vt 0.860028 0.572271
vt 0.286676 0.461369
vt 0.286676 0.572324
vt 0.860028 0.479023
vt 0.489387 0.572324
vt 0.370641 0.572324
vt 0.370641 0.196312
vt 0.489387 0.196312
vt 0.202711 0.000000
vt 0.286676 0.011389
vt 0.286676 0.387400
vt 0.202711 0.376011
vt 0.736245 -0.000000
vt 0.851427 0.028868
vt 0.286676 0.560935
vt 0.286676 0.184923
vt -0.000000 0.011389
vt 0.083965 0.000000
vt 0.083965 0.376011
vt -0.000000 0.387400
vt 0.573352 0.560935
vt 0.573352 0.184924
vt 0.776063 0.873183
vt 0.657318 0.873183
vt 0.485012 0.136695
vt 0.375016 0.136695
vt 0.440501 0.582885
vt 0.387512 0.660664
vt 0.425859 0.572324
vt 0.387512 0.770659
vt 0.851427 0.276115
vt 0.912505 0.198336
vt 0.864727 0.286676
vt 0.912506 0.088340
vt 0.851427 0.010561
vt 0.864727 -0.000000
vt 0.440501 0.848438
vt 0.425859 0.858999
vt 0.088340 0.435629
vt 0.198336 0.435629
vt 0.451062 0.691069
vt 0.451062 0.572324
vt 0.461624 0.576698
vt 0.461624 0.686694
vt 0.198336 0.394316
vt 0.088340 0.394316
vt 0.485012 0.178008
vt 0.562791 0.167458
vt 0.010561 0.404865
vt 0.297237 0.167458
vt 0.375016 0.178008
vt 0.451062 0.572324
vt 0.451062 0.691069
vt 0.440501 0.686694
vt 0.440501 0.576698
vt 0.276115 0.404865
vt 0.886688 0.198336
vt 0.886688 0.088340
vt 0.562791 0.126145
vt 0.010561 0.446179
vt 0.297237 0.126145
vt 0.418036 0.660664
vt 0.418036 0.770659
vt 0.276115 0.446179
vt -0.000000 0.775034
vt 0.000000 0.656289
vt 0.083965 0.572324
vt 0.202711 0.572324
vt 0.286676 0.656289
vt 0.286676 0.775034
vt 0.202711 0.859000
vt 0.083965 0.859000
s 0
f 30/1/1 31/2/1 6/3/1 8/4/1
f 16/5/2 15/6/2 1/7/2
f 27/8/3 32/9/3 2/10/3 4/11/3
f 1/7/4 15/6/4 3/12/4
f 26/13/5 33/14/5 12/15/5 14/16/5
f 3/12/6 15/6/6 5/17/6
f 31/18/7 27/8/7 4/11/7 6/19/7
f 5/20/8 15/21/8 7/22/8
f 29/23/9 30/24/9 8/25/9 10/26/9
f 7/22/10 15/21/10 9/27/10
f 28/28/11 26/29/11 14/30/11 17/31/11
f 9/27/12 15/21/12 11/32/12
f 11/32/13 15/21/13 13/33/13
f 32/9/14 28/34/14 17/35/14 2/10/14
f 13/33/15 15/21/15 16/36/15
f 33/14/16 29/23/16 10/26/16 12/15/16
f 5/37/16 7/38/16 23/39/16 24/40/16
f 16/41/14 1/42/14 21/43/14 22/44/14
f 1/7/11 3/12/11 19/45/11 21/46/11
f 7/38/9 9/47/9 25/48/9 23/39/9
f 11/49/7 13/50/7 20/51/7 18/52/7
f 3/53/5 5/37/5 24/40/5 19/54/5
f 13/50/3 16/41/3 22/44/3 20/51/3
f 9/27/1 11/32/1 18/55/1 25/56/1
f 49/57/17 45/58/17 29/23/17 33/14/17
f 48/59/18 44/60/18 28/28/18 32/61/18
f 44/60/19 42/62/19 26/29/19 28/28/19
f 45/63/20 46/64/20 30/1/20 29/65/20
f 47/66/21 43/67/21 27/68/21 31/2/21
f 42/62/22 49/69/22 33/70/22 26/29/22
f 43/71/23 48/72/23 32/9/23 27/8/23
f 46/64/24 47/66/24 31/2/24 30/1/24
f 25/73/25 18/74/25 34/75/25 41/76/25
f 20/51/26 22/44/26 35/77/26 38/78/26
f 19/54/27 24/40/27 36/79/27 37/80/27
f 18/52/28 20/51/28 38/78/28 34/81/28
f 23/39/29 25/48/29 41/82/29 40/83/29
f 21/84/30 19/85/30 37/86/30 39/87/30
f 22/44/31 21/43/31 39/88/31 35/77/31
f 24/40/32 23/39/32 40/83/32 36/79/32
f 41/89/1 34/90/1 47/66/1 46/64/1
f 38/78/3 35/77/3 48/72/3 43/71/3
f 37/80/5 36/79/5 49/57/5 42/91/5
f 34/81/7 38/78/7 43/71/7 47/92/7
f 40/83/9 41/82/9 46/93/9 45/58/9
f 39/94/11 37/95/11 42/62/11 44/60/11
f 35/77/14 39/88/14 44/96/14 48/72/14
f 36/79/16 40/83/16 45/58/16 49/57/16
f 4/97/33 2/98/33 17/99/33 14/100/33 12/101/33 10/102/33 8/103/33 6/104/33
