# Blender 4.4.3
# www.blender.org
mtllib swordDummy.mtl
o Cube
v 0.848327 -0.193836 0.163140
v 0.370094 -0.003886 0.163140
v 0.848327 -0.193836 -0.163140
v 0.370094 -0.003886 -0.163140
v 0.848327 -0.193836 0.000000
v 0.370094 -0.003886 0.000000
v 0.000000 -0.271722 -0.211680
v 0.000000 -0.003886 -0.104387
v 0.000000 -0.271722 0.211680
v 0.000000 -0.003886 0.104387
v 0.000000 -1.061858 -0.154166
v 0.169747 -0.003886 -0.104387
v 0.169747 -0.271722 0.211680
v 0.304075 -0.003886 -0.000000
v 0.169747 -0.271722 -0.211680
v 0.169747 -0.003886 0.104387
v 0.169747 -0.271722 0.000000
v 0.000000 1.555415 -0.104387
v 0.000000 1.555415 0.104387
v 0.212447 1.555415 -0.104387
v 0.509481 1.555415 -0.000000
v 0.212447 1.555415 0.104387
v 0.000000 3.220729 -0.000000
v 0.000000 -0.370105 -0.154166
v 0.000000 -0.370105 0.154166
v 0.086911 -0.370105 0.110480
v 0.086911 -0.370105 -0.110480
v 0.142472 -0.370105 0.000000
v 0.000000 -1.061858 0.154166
v 0.000000 -1.061858 0.000000
v 0.086911 -1.061858 0.110480
v 0.086911 -1.061858 -0.110480
v 0.142472 -1.061858 0.000000
v -0.848327 -0.193836 0.163140
v -0.370094 -0.003886 0.163140
v -0.848327 -0.193836 -0.163140
v -0.370094 -0.003886 -0.163140
v -0.848327 -0.193836 0.000000
v -0.370094 -0.003886 0.000000
v -0.169747 -0.003886 -0.104387
v -0.169747 -0.271722 0.211680
v -0.304075 -0.003886 -0.000000
v -0.169747 -0.271722 -0.211680
v -0.169747 -0.003886 0.104387
v -0.169747 -0.271722 0.000000
v -0.212447 1.555415 -0.104387
v -0.509481 1.555415 -0.000000
v -0.212447 1.555415 0.104387
v -0.086911 -0.370105 0.110480
v -0.086911 -0.370105 -0.110480
v -0.142472 -0.370105 0.000000
v -0.086911 -1.061858 0.110480
v -0.086911 -1.061858 -0.110480
v -0.142472 -1.061858 0.000000
vn -0.0290 0.1992 -0.9795
vn 0.3691 0.9294 -0.0000
vn 0.1140 -0.9935 -0.0000
vn -0.0000 0.3719 0.9283
vn -0.0290 0.1992 0.9795
vn -0.0000 1.0000 -0.0000
vn 0.1269 -0.6546 0.7453
vn 0.8304 -0.5384 0.1432
vn -0.0000 0.3719 -0.9283
vn 0.4354 -0.0346 0.8996
vn -0.0000 -0.0000 -1.0000
vn 0.4354 -0.0346 -0.8996
vn 0.3299 0.1009 -0.9386
vn 0.3299 0.1009 0.9386
vn -0.0000 0.0626 -0.9980
vn -0.0000 0.0626 0.9980
vn 0.4491 -0.0000 0.8935
vn 0.8934 -0.0000 0.4493
vn 0.8304 -0.5384 -0.1432
vn 0.1269 -0.6546 -0.7453
vn -0.0000 -1.0000 -0.0000
vn 0.4491 -0.0000 -0.8935
vn 0.8934 -0.0000 -0.4493
vn -0.0000 -0.0000 1.0000
vn 0.0290 0.1992 -0.9795
vn -0.3691 0.9294 -0.0000
vn -0.1140 -0.9935 -0.0000
vn 0.0290 0.1992 0.9795
vn -0.1269 -0.6546 0.7453
vn -0.8304 -0.5384 0.1432
vn -0.4354 -0.0346 0.8996
vn -0.4354 -0.0346 -0.8996
vn -0.3299 0.1009 -0.9386
vn -0.3299 0.1009 0.9386
vn -0.4491 -0.0000 0.8935
vn -0.8934 -0.0000 0.4493
vn -0.8304 -0.5384 -0.1432
vn -0.1269 -0.6546 -0.7453
vn -0.4491 -0.0000 -0.8935
vn -0.8934 -0.0000 -0.4493
vt 0.375000 0.408571
vt 0.625000 0.408571
vt 0.625000 0.500000
vt 0.375000 0.500000
vt 0.375000 0.625000
vt 0.625000 0.625000
vt 0.625000 0.750000
vt 0.375000 0.750000
vt 0.283571 0.625000
vt 0.283571 0.750000
vt 0.283571 0.500000
vt 0.375000 0.841429
vt 0.625000 0.841429
vt 0.625000 0.875000
vt 0.375000 0.875000
vt 0.716429 0.625000
vt 0.716429 0.750000
vt 0.716429 0.500000
vt 0.375000 0.375000
vt 0.625000 0.375000
vt 0.250000 0.500000
vt 0.250000 0.625000
vt 0.250000 0.750000
s 0
usemtl blade
f 16/17/10 14/16/10 21/16/10 22/17/10
f 12/2/11 8/20/11 18/20/11 20/2/11
f 14/16/12 12/18/12 20/18/12 21/16/12
f 21/16/13 20/18/13 23/16/13
f 22/17/14 21/16/14 23/17/14
f 20/18/15 18/20/15 23/18/15
f 22/17/16 23/17/16 19/14/16
f 10/14/24 16/13/24 22/13/24 19/14/24
f 44/17/31 48/17/31 47/16/31 42/16/31
f 40/2/11 46/2/11 18/20/11 8/20/11
f 42/16/32 47/16/32 46/18/32 40/18/32
f 47/16/33 23/16/33 46/18/33
f 48/17/34 23/17/34 47/16/34
f 46/18/15 23/18/15 18/20/15
f 48/17/16 19/14/16 23/17/16
f 10/14/24 19/14/24 48/13/24 44/13/24
usemtl hilt
f 15/1/1 12/2/1 4/3/1 3/4/1
f 5/5/2 6/6/2 2/7/2 1/8/2
f 17/9/3 5/5/3 1/8/3 13/10/3
f 15/11/3 3/4/3 5/5/3 17/9/3
f 3/4/2 4/3/2 6/6/2 5/5/2
f 13/12/4 16/13/4 10/14/4 9/15/4
f 1/8/5 2/7/5 16/13/5 13/12/5
f 6/6/6 14/16/6 16/17/6 2/7/6
f 4/3/6 12/18/6 14/16/6 6/6/6
f 13/12/7 9/15/7 25/15/7 26/12/7
f 17/9/8 13/10/8 26/10/8 28/9/8
f 7/19/9 8/20/9 12/2/9 15/1/9
f 15/11/19 17/9/19 28/9/19 27/11/19
f 7/19/20 15/1/20 27/1/20 24/19/20
f 43/1/25 36/4/25 37/3/25 40/2/25
f 38/5/26 34/8/26 35/7/26 39/6/26
f 45/9/27 41/10/27 34/8/27 38/5/27
f 43/11/27 45/9/27 38/5/27 36/4/27
f 36/4/26 38/5/26 39/6/26 37/3/26
f 41/12/4 9/15/4 10/14/4 44/13/4
f 34/8/28 41/12/28 44/13/28 35/7/28
f 39/6/6 35/7/6 44/17/6 42/16/6
f 37/3/6 39/6/6 42/16/6 40/18/6
f 41/12/29 49/12/29 25/15/29 9/15/29
f 45/9/30 51/9/30 49/10/30 41/10/30
f 7/19/9 43/1/9 40/2/9 8/20/9
f 43/11/37 50/11/37 51/9/37 45/9/37
f 7/19/38 24/19/38 50/1/38 43/1/38
usemtl Material.001
f 26/12/17 25/15/17 29/15/17 31/12/17
f 28/9/18 26/10/18 31/10/18 33/9/18
f 11/21/21 32/11/21 33/9/21 30/22/21
f 30/22/21 33/9/21 31/10/21 29/23/21
f 24/19/22 27/1/22 32/1/22 11/19/22
f 27/11/23 28/9/23 33/9/23 32/11/23
f 49/12/35 52/12/35 29/15/35 25/15/35
f 51/9/36 54/9/36 52/10/36 49/10/36
f 11/21/21 30/22/21 54/9/21 53/11/21
f 30/22/21 29/23/21 52/10/21 54/9/21
f 24/19/39 11/19/39 53/1/39 50/1/39
f 50/11/40 53/11/40 54/9/40 51/9/40
